{"title":"[XXX - GAY] BlakeMason Collection 2010 Pack 3","uid":10316794,"size":11425082608,"categoryP":"porn","categoryS":"movies","magnet":"?xt=urn:btih:dedf2a6c1218a187e6589a91a94f7b3665ecee27&amp;dn=%5BXXX+-+GAY%5D+BlakeMason+Collection+2010+Pack+3&amp;tr=udp%3A%2F%2Ftracker.openbittorrent.com%3A80&amp;tr=udp%3A%2F%2Fopen.demonii.com%3A1337&amp;tr=udp%3A%2F%2Ftracker.coppersurfer.tk%3A6969&amp;tr=udp%3A%2F%2Fexodus.desync.com%3A6969","seeders":4,"leechers":2,"uploader":"mindcrasher","files":-1,"time":1402254870,"description":"Format                                   : MPEG-4\nFormat profile                           : Base Media / Version 2\nCodec ID                                 : mp42\nFile size                                : 648 MiB\nDuration                                 : 18mn 45s\nOverall bit rate mode                    : Variable\nOverall bit rate                         : 4 828 Kbps\nEncoded date                             : UTC 2009-11-19 18:19:21\nTagged date                              : UTC 2009-11-20 22:05:55\nWriting application                      : Sorenson Squeeze 5.0\n\nVideo\nID                                       : 2\nFormat                                   : MPEG-4 Visual\nFormat profile                           : Main@L4\nFormat settings, BVOP                    : Yes\nFormat settings, QPel                    : No\nFormat settings, GMC                     : No warppoints\nFormat settings, Matrix                  : Default (H.263)\nCodec ID                                 : 20\nDuration                                 : 18mn 45s\nBit rate mode                            : Variable\nBit rate                                 : 4 567 Kbps\nNominal bit rate                         : 752 Kbps\nMaximum bit rate                         : 12.9 Mbps\nWidth                                    : 1 280 pixels\nHeight                                   : 720 pixels\nDisplay aspect ratio                     : 16:9\nFrame rate mode                          : Constant\nFrame rate                               : 25.000 fps\nColor space                              : YUV\nBit depth                                : 8 bits\nScan type                                : Progressive\nCompression mode                         : Lossy\nBits/(Pixel*Frame)                       : 0.198\nStream size                              : 613 MiB (95%)\nEncoded date                             : UTC 2009-11-19 18:19:21\nTagged date                              : UTC 2009-11-19 18:19:21\n\nAudio\nID                                       : 1\nFormat                                   : AAC\nFormat/Info                              : Advanced Audio Codec\nFormat profile                           : LC\nCodec ID                                 : 40\nDuration                                 : 18mn 45s\nBit rate mode                            : Variable\nBit rate                                 : 256 Kbps\nChannel(s)                               : 2 channels\nChannel positions                        : Front: L R\nSampling rate                            : 48.0 KHz\nCompression mode                         : Lossy\nStream size                              : 34.4 MiB (5%)\nEncoded date                             : UTC 2009-11-19 18:19:21\nTagged date                              : UTC 2009-11-19 18:19:21","torrent":{"xt":"urn:btih:dedf2a6c1218a187e6589a91a94f7b3665ecee27","amp;dn":"%5BXXX+-+GAY%5D+BlakeMason+Collection+2010+Pack+3","amp;tr":["udp%3A%2F%2Ftracker.openbittorrent.com%3A80","udp%3A%2F%2Fopen.demonii.com%3A1337","udp%3A%2F%2Ftracker.coppersurfer.tk%3A6969","udp%3A%2F%2Fexodus.desync.com%3A6969"],"infoHash":"dedf2a6c1218a187e6589a91a94f7b3665ecee27","infoHashBuffer":{"type":"Buffer","data":[222,223,42,108,18,24,161,135,230,88,154,145,169,79,123,54,101,236,238,39]},"announce":[],"urlList":[]}}